<?xml version="1.0" encoding="utf-8"?>
<!-- Generator: Adobe Illustrator 27.5.0, SVG Export Plug-In . SVG Version: 6.00 Build 0)  -->
<svg version="1.1" id="Ebene_1" xmlns="http://www.w3.org/2000/svg" xmlns:xlink="http://www.w3.org/1999/xlink" x="0px" y="0px"
	 viewBox="0 0 66.9 60" style="enable-background:new 0 0 66.9 60;" xml:space="preserve">
<style type="text/css">
	.st0{fill:none;stroke:#FFFFFF;stroke-miterlimit:10;}
	.st1{fill:#FFFFFF;}
	.st2{fill:#CE0058;}
</style>
<g>
	<path class="st0" d="M1.5,43.5l22.2-38c2.8,1.7,17.1,9.5,19.4,11l-22.2,38C18.5,57.7-1.5,48.4,1.5,43.5L1.5,43.5z"/>
	<path class="st1" d="M65.4,43.5l-22.2-38c-3.1-5.2-9.8-7-15.3-4s-7.2,9.6-4.1,15l22.2,38c3.1,5.2,9.8,7,15.3,4
		C66.6,55.5,68.5,48.7,65.4,43.5L65.4,43.5z"/>
	<ellipse class="st1" cx="11.2" cy="49.1" rx="11.2" ry="10.9"/>
</g>
<rect x="51.4" y="32.3" transform="matrix(0.7071 -0.7071 0.7071 0.7071 -17.44 51.7877)" class="st2" width="4.7" height="29.4"/>
<rect x="38.9" y="44.6" transform="matrix(0.7071 -0.7071 0.7071 0.7071 -17.4639 51.6692)" class="st2" width="29.4" height="4.7"/>
</svg>
