<?xml version="1.0" encoding="utf-8"?>
<!-- Generator: Adobe Illustrator 27.5.0, SVG Export Plug-In . SVG Version: 6.00 Build 0)  -->
<svg version="1.1" id="Ebene_1" xmlns="http://www.w3.org/2000/svg" xmlns:xlink="http://www.w3.org/1999/xlink" x="0px" y="0px"
	 viewBox="0 0 595.2 116.7" style="enable-background:new 0 0 595.2 116.7;" xml:space="preserve">
<style type="text/css">
	.st0{fill:#FFFFFF;}
	.st1{fill:#CE0058;}
</style>
<path class="st0" d="M96.8,78.1l-4.2-3.6c5.1-6.3,8.4-15.4,8.4-23.4c0-24.4-19.1-40.3-42.7-40.3c-31.6,0-42.7,25-42.7,52.9
	c0,24.6,18.2,45.1,43.3,45.1c13.2,0,24.9-3.9,35.7-11.3c2.1-1.4,3.9-3.1,5.8-4.9l2.4,3.6c-10.1,12.4-27.3,20.5-43.3,20.5
	C26.9,116.7,0,93,0,59.5C0,25.6,24.8,0,58.9,0c28.3,0,51.7,17.8,51.7,47.5C110.6,58.4,104.8,70.6,96.8,78.1L96.8,78.1z M66.7,37.5
	L47.8,80.6c-1.6,3.6-3.9,7.8-8.6,7.8c-3.3,0-5.9-2.4-5.9-5.8c0-2.7,1.3-5.1,2.3-7.3l20.5-46.7c1.6-3.5,3.5-6.2,7.6-6.2
	c3.3,0,5.8,2.4,5.8,5.8C69.5,31.4,68.1,34.6,66.7,37.5L66.7,37.5z M81.8,63.7l-7.6,16.9c-1.7,3.6-4.1,7.7-8.6,7.7
	c-3.3,0-5.8-2.4-5.8-5.8c0-2.5,1.2-4.9,2.3-7.2l9.2-20.5c1.6-3.3,3.5-6.2,7.6-6.2c3.3,0,5.8,2.4,5.8,5.8
	C84.5,57.7,83.1,60.8,81.8,63.7z M140,23.7h10.9v25.6h0.1c1.3-2,3.2-3.8,5.4-4.9c2.2-1.3,4.7-1.9,7.4-1.9c7.3,0,15,4.8,15,18.6v25.3
	h-10.9V62.3c0-6.3-2.3-10.9-8.3-10.9c-4.2,0-7.2,2.8-8.4,6.1c-0.4,0.9-0.4,2-0.4,3.3v25.7h-10.9L140,23.7L140,23.7z M198.1,67.9
	c0.3,7.7,6.3,11.1,13.2,11.1c5.1,0,8.6-0.7,11.9-1.9l1.6,7.5c-3.7,1.5-8.9,2.8-15,2.8c-13.9,0-22.1-8.6-22.1-21.8
	c0-11.9,7.2-23.1,21-23.1c14,0,18.5,11.5,18.5,20.9c0,2-0.1,3.6-0.4,4.6L198.1,67.9z M217,60.3c0.1-3.9-1.7-10.5-8.9-10.5
	c-6.7,0-9.5,6.1-10,10.5H217z M249.3,31.4c0,3.3-2.4,5.8-6.2,5.8c-3.6,0-6-2.5-6-5.8s2.5-5.9,6.1-5.9
	C246.9,25.5,249.1,28,249.3,31.4L249.3,31.4z M237.7,86.3V43.4h10.9v42.9H237.7z M261.6,76.4c2.5,1.5,7.1,3.1,11,3.1
	c4.8,0,6.8-1.9,6.8-4.8s-1.8-4.4-7.1-6.3c-8.4-2.9-11.9-7.5-11.8-12.5c0-7.6,6.3-13.5,16.2-13.5c4.8,0,8.9,1.3,11.4,2.5l-2.2,7.7
	c-1.9-1-5.3-2.5-9.1-2.5c-3.9,0-6,1.9-6,4.5c0,2.8,2,4.1,7.5,6c7.7,2.8,11.4,6.8,11.5,13.2c0,7.7-6.1,13.5-17.5,13.5
	c-5.2,0-9.9-1.3-13-3.1L261.6,76.4L261.6,76.4z M308.3,67.9c0.3,7.7,6.3,11.1,13.2,11.1c5.1,0,8.6-0.7,11.9-1.9l1.6,7.5
	c-3.7,1.5-8.9,2.8-15,2.8c-14-0.1-22.2-8.7-22.2-21.8c0-11.9,7.2-23.1,21-23.1c14,0,18.5,11.5,18.5,20.9c0,2-0.1,3.6-0.4,4.6
	L308.3,67.9z M327.2,60.3c0.1-3.9-1.7-10.5-8.9-10.5c-6.7,0-9.5,6.1-10,10.5H327.2z M405.2,64.5c0,15.8-11.1,22.8-22,22.8
	c-12.2-0.1-21.5-8.4-21.5-22.2c0-14.1,9.3-22.8,22.2-22.8C396.6,42.4,405.2,51.4,405.2,64.5z M372.8,64.9c0,8.3,4.1,14.5,10.7,14.5
	c6.2,0,10.5-6.1,10.5-14.7c0-6.7-3-14.4-10.4-14.4C375.9,50.4,372.8,57.8,372.8,64.9L372.8,64.9z M414.1,56.2
	c0-4.9-0.1-9.1-0.4-12.8h9.5l0.5,6.4h0.3c1.9-3.3,6.5-7.4,13.7-7.4c7.5,0,15.3,4.8,15.3,18.5v25.5h-10.9V62.1
	c0-6.2-2.3-10.9-8.2-10.9c-4.3,0-7.3,3.1-8.5,6.3c-0.4,1-0.4,2.3-0.4,3.5v25.2h-10.9V56.2L414.1,56.2z M464.5,23.7h10.9v62.7h-10.9
	V23.7z M498.8,31.4c0,3.3-2.4,5.8-6.2,5.8c-3.6,0-6-2.5-6-5.8s2.5-5.9,6.1-5.9C496.4,25.5,498.7,28,498.8,31.4z M487.2,86.3V43.4
	h10.9v42.9H487.2z M509.8,56.2c0-4.9-0.1-9.1-0.4-12.8h9.5l0.5,6.4h0.3c1.9-3.3,6.5-7.4,13.7-7.4c7.5,0,15.3,4.8,15.3,18.5v25.5
	h-10.9V62.1c0-6.2-2.3-10.9-8.2-10.9c-4.3,0-7.3,3.1-8.5,6.3c-0.4,1-0.4,2.3-0.4,3.5v25.2h-10.9L509.8,56.2L509.8,56.2z M566.1,67.9
	c0.3,7.7,6.3,11.1,13.2,11.1c5.1,0,8.6-0.7,11.9-1.9l1.6,7.5c-3.7,1.5-8.9,2.8-15,2.8c-13.9,0-22.1-8.6-22.1-21.8
	c0-11.9,7.2-23.1,21-23.1c14,0,18.5,11.5,18.5,20.9c0,2-0.1,3.6-0.4,4.6L566.1,67.9z M585,60.3c0.1-3.9-1.7-10.5-8.9-10.5
	c-6.7,0-9.5,6.1-10,10.5H585z"/>
<rect x="551.4" y="43.8" transform="matrix(0.7071 -0.7071 0.7071 0.7071 106.6024 417.4361)" class="st1" width="11.6" height="72.5"/>
<rect x="520.6" y="74.2" transform="matrix(0.7071 -0.7071 0.7071 0.7071 106.5436 417.1437)" class="st1" width="72.5" height="11.6"/>
</svg>
