<?xml version="1.0" encoding="utf-8"?>
<!-- Generator: Adobe Illustrator 25.2.0, SVG Export Plug-In . SVG Version: 6.00 Build 0)  -->
<svg version="1.1" xmlns="http://www.w3.org/2000/svg" xmlns:xlink="http://www.w3.org/1999/xlink" x="0px" y="0px"
	 viewBox="0 0 150 150" style="enable-background:new 0 0 150 150;" xml:space="preserve">
<style type="text/css">
	.st0{display:none;}
	.st1{fill:#FF7A59;}
	.st2{fill:#1797C0;}
	.st3{fill:#FFFFFF;}
	.st4{fill-rule:evenodd;clip-rule:evenodd;fill:#FFFFFF;}
	.st5{clip-path:url(#SVGID_3_);fill:#FBBC05;}
	.st6{clip-path:url(#SVGID_5_);fill:#EA4335;}
	.st7{clip-path:url(#SVGID_7_);fill:#34A853;}
	.st8{clip-path:url(#SVGID_9_);fill:#4285F4;}
	.st9{fill:#65C99C;}
	.st10{fill:#E7D94C;}
	.st11{fill:#397FC4;}
	.st12{fill:#9F7FFF;}
	.st13{fill:url(#SVGID_10_);}
	.st14{fill:#E2D8FF;}
	.st15{fill:#0DBDFF;}
	.st16{fill:#008373;}
	.st17{clip-path:url(#SVGID_12_);}
	.st18{fill:#DBDBDB;}
	.st19{fill:url(#SVGID_13_);}
	.st20{fill:#1877F2;}
	.st21{fill:#FBBC04;}
	.st22{fill:#34A853;}
	.st23{fill:#3B80EF;}
	.st24{fill:#FBBD04;}
	.st25{fill:#438EDC;}
	.st26{fill:#34A952;}
	.st27{fill:#4285F4;}
	.st28{fill:#F9AB00;}
	.st29{fill:#E37400;}
	.st30{fill:#1E8E3E;}
	.st31{fill:#5BB974;}
	.st32{fill:#81C995;}
	.st33{fill:#4989F5;}
	.st34{fill:url(#SVGID_14_);}
	.st35{fill:#3C4BA6;}
	.st36{fill:#7BABF7;}
	.st37{fill:#3F51B5;}
	.st38{fill-rule:evenodd;clip-rule:evenodd;fill:#709BE0;}
	.st39{fill-rule:evenodd;clip-rule:evenodd;fill:#3C4BA6;}
	.st40{fill:#1A73E8;}
	.st41{fill:#669DF3;}
	.st42{fill:url(#SVGID_15_);}
	.st43{fill:url(#SVGID_16_);}
	.st44{fill:#0077B7;}
	.st45{fill:#3D3D3D;}
	.st46{fill:#F25022;}
	.st47{fill:#7FBA00;}
	.st48{fill:#00A4EF;}
	.st49{fill:#FFB900;}
	.st50{clip-path:url(#SVGID_18_);}
	.st51{fill-rule:evenodd;clip-rule:evenodd;fill:#24ABE2;}
	.st52{fill:#FF5B00;}
	.st53{clip-path:url(#SVGID_19_);fill:#FFFFFF;}
	.st54{clip-path:url(#SVGID_19_);fill:#E60023;}
	.st55{fill:#B92B27;}
	.st56{fill:#FF4500;}
	.st57{fill:#B85027;}
	.st58{fill-rule:evenodd;clip-rule:evenodd;fill:#635BFF;}
	.st59{fill:#004B7A;}
	.st60{fill:#001935;}
	.st61{fill:#1DA1F2;}
	.st62{fill:#FEFEFE;}
	.st63{fill:#00B8EE;}
	.st64{fill:#C354D8;}
	.st65{fill:#70D200;}
	.st66{fill:#FEB600;}
	.st67{fill:#E02826;}
	.st68{fill:#1AB7EA;}
	.st69{fill-rule:evenodd;clip-rule:evenodd;fill:#4680C2;}
	.st70{fill:#FF0000;}
	.st71{fill:url(#SVGID_20_);}
	.st72{fill:#E6E3CC;}
	.st73{fill:#D4DBEF;}
	.st74{fill:#58409B;}
	.st75{fill:#29B5E8;}
	.st76{fill:none;stroke:#29B5E8;stroke-width:1.4412;stroke-miterlimit:10;}
	.st77{fill:none;stroke:#29B5E8;stroke-width:1.4412;stroke-linecap:round;stroke-linejoin:round;stroke-miterlimit:10;}
	.st78{fill-rule:evenodd;clip-rule:evenodd;fill:#12AE3A;}
	.st79{fill:#080738;}
	.st80{fill:#0037FF;}
	.st81{fill:#FFFC00;}
	.st82{fill:#030303;}
	.st83{fill:#95BF47;}
	.st84{fill:#5E8E3E;}
	.st85{fill:#005B9E;}
	.st86{fill:#F27421;}
	.st87{fill:#388AED;}
	.st88{fill:#F7F9FA;}
	.st89{fill:#14CCB2;}
	.st90{fill:#0E1621;}
	.st91{fill-rule:evenodd;clip-rule:evenodd;fill:#FE2C55;}
	.st92{fill-rule:evenodd;clip-rule:evenodd;}
	.st93{fill-rule:evenodd;clip-rule:evenodd;fill:#25F4EE;}
</style>
<g id="Layer_2" class="st0">
</g>
<g id="Layer_1">
	<g>
		<path class="st44" d="M135.6,1H14.4C7,1,1,7,1,14.4v121.2C1,143,7,149,14.4,149h121.2c7.4,0,13.4-6,13.4-13.4V14.4
			C149,7,143,1,135.6,1z M43.2,133.1H26.6c-2.2,0-3.9-1.7-3.9-3.9V59.5c0-2.2,1.7-3.9,3.9-3.9h16.6c2.2,0,3.9,1.7,3.9,3.9v69.7
			C47.1,131.4,45.4,133.1,43.2,133.1z M34.8,49C26.1,49,19,41.9,19,33.2s7.1-15.8,15.8-15.8s15.8,7.1,15.8,15.8S43.5,49,34.8,49z
			 M133.5,129.5c0,2-1.6,3.6-3.6,3.6h-17.6c-2,0-3.6-1.6-3.6-3.6V96.9c0-4.9,1.4-21.3-12.7-21.3c-11,0-13.2,11.3-13.6,16.3v37.6
			c0,2-1.6,3.6-3.6,3.6H61.5c-2,0-3.6-1.6-3.6-3.6V59.2c0-2,1.6-3.6,3.6-3.6h17.2c2,0,3.6,1.6,3.6,3.6v6.1
			c4.1-6.1,10.1-10.8,22.9-10.8c28.4,0,28.2,26.7,28.2,41.3L133.5,129.5L133.5,129.5z"/>
	</g>
</g>
</svg>
