<?xml version="1.0" encoding="utf-8"?>
<!-- Generator: Adobe Illustrator 27.5.0, SVG Export Plug-In . SVG Version: 6.00 Build 0)  -->
<svg version="1.1" id="Ebene_1" xmlns="http://www.w3.org/2000/svg" xmlns:xlink="http://www.w3.org/1999/xlink" x="0px" y="0px"
	 viewBox="0 0 60 60" style="enable-background:new 0 0 60 60;" xml:space="preserve">
<style type="text/css">
	.st0{display:none;}
	.st1{fill:#FFFFFF;}
	.st2{fill:#CE0058;}
</style>
<g id="Layer_2" class="st0">
</g>
<g id="Layer_1">
	<g>
		<path class="st1" d="M54.6,0H5.4C2.4,0,0,2.4,0,5.4v49.1c0,3,2.4,5.4,5.4,5.4h49.1c3,0,5.4-2.4,5.4-5.4V5.4C60,2.4,57.6,0,54.6,0z
			 M17.1,53.6h-6.7c-0.9,0-1.6-0.7-1.6-1.6V23.7c0-0.9,0.7-1.6,1.6-1.6h6.7c0.9,0,1.6,0.7,1.6,1.6V52C18.7,52.9,18,53.6,17.1,53.6z
			 M13.7,19.5c-3.5,0-6.4-2.9-6.4-6.4s2.9-6.4,6.4-6.4s6.4,2.9,6.4,6.4S17.2,19.5,13.7,19.5z M53.7,52.1c0,0.8-0.6,1.5-1.5,1.5h-7.1
			c-0.8,0-1.5-0.6-1.5-1.5V38.9c0-2,0.6-8.6-5.1-8.6c-4.5,0-5.4,4.6-5.5,6.6v15.2c0,0.8-0.6,1.5-1.5,1.5h-7c-0.8,0-1.5-0.6-1.5-1.5
			V23.6c0-0.8,0.6-1.5,1.5-1.5h7c0.8,0,1.5,0.6,1.5,1.5v2.5c1.7-2.5,4.1-4.4,9.3-4.4c11.5,0,11.4,10.8,11.4,16.7L53.7,52.1
			L53.7,52.1z"/>
	</g>
</g>
<rect x="44.9" y="32.4" transform="matrix(0.7071 -0.7071 0.7071 0.7071 -19.4666 47.1727)" class="st2" width="4.7" height="29.4"/>
<rect x="32.4" y="44.7" transform="matrix(0.7071 -0.7071 0.7071 0.7071 -19.4905 47.0541)" class="st2" width="29.4" height="4.7"/>
</svg>
