<?xml version="1.0" encoding="utf-8"?>
<!-- Generator: Adobe Illustrator 27.5.0, SVG Export Plug-In . SVG Version: 6.00 Build 0)  -->
<svg version="1.1" id="Ebene_1" xmlns="http://www.w3.org/2000/svg" xmlns:xlink="http://www.w3.org/1999/xlink" x="0px" y="0px"
	 viewBox="0 0 150 150" style="enable-background:new 0 0 150 150;" xml:space="preserve">
<style type="text/css">
	.st0{display:none;}
	.st1{fill:#FFFFFF;}
</style>
<g id="Layer_2" class="st0">
</g>
<g id="Layer_1">
	<g>
		<path class="st1" d="M135.6,1H14.4C7,1,1,7,1,14.4v121.2C1,143,7,149,14.4,149h121.2c7.4,0,13.4-6,13.4-13.4V14.4
			C149,7,143,1,135.6,1z M43.2,133.1H26.6c-2.2,0-3.9-1.7-3.9-3.9V59.5c0-2.2,1.7-3.9,3.9-3.9h16.6c2.2,0,3.9,1.7,3.9,3.9v69.7
			C47.1,131.4,45.4,133.1,43.2,133.1z M34.8,49C26.1,49,19,41.9,19,33.2s7.1-15.8,15.8-15.8s15.8,7.1,15.8,15.8S43.5,49,34.8,49z
			 M133.5,129.5c0,2-1.6,3.6-3.6,3.6h-17.6c-2,0-3.6-1.6-3.6-3.6V96.9c0-4.9,1.4-21.3-12.7-21.3c-11,0-13.2,11.3-13.6,16.3v37.6
			c0,2-1.6,3.6-3.6,3.6H61.5c-2,0-3.6-1.6-3.6-3.6V59.2c0-2,1.6-3.6,3.6-3.6h17.2c2,0,3.6,1.6,3.6,3.6v6.1
			c4.1-6.1,10.1-10.8,22.9-10.8c28.4,0,28.2,26.7,28.2,41.3L133.5,129.5L133.5,129.5z"/>
	</g>
</g>
</svg>
