<svg id="Ebene_1" data-name="Ebene 1" xmlns="http://www.w3.org/2000/svg" viewBox="0 0 474.61 118.7"><defs><style>.cls-1{fill:#ce0058;}.cls-2{fill:#f7f7f7;}</style></defs><title>truffle.one_Logo_blauer_HG_RGB_Web</title><path class="cls-1" d="M29.91,44.94l-4,22.53c-1.09,6,.36,7.51,7.14,7.51a66.55,66.55,0,0,0,9.45-.73l-1.7,15.26C35,91,26.4,91.08,23.37,91.08,9.08,91.08,1.94,83.69,4.6,68.92l4.24-24H0L2.06,33.07l10-2.18L20,13.21h15.5L32.34,30.89H48.2l-2.42,14Z"/><path class="cls-1" d="M136.3,81.15c-7.5,9.21-15.86,10-19.13,10-16,0-17.08-9.56-14.9-22.28l6.66-38h21.44l-6.18,35.25c-1.09,5.93-.84,9.56,5.33,9.56,6.54,0,9.08-7.75,9.93-12.71L145,30.89H166.7L156.29,90.36H137.64c-1-1.82-1.46-4.85-.73-9.21Z"/><path class="cls-1" d="M102.46,30.89c-7.62.13-16.39,3-22.2,12.11h-.6c1.09-5.57.48-9.93-.61-12.11H60.89L50.47,90.36H72.15l4-23.5c1.89-11.39,6.43-16.33,23-17.26Z"/><path class="cls-1" d="M266.37,2C261.77,1,258,0,252.2,0c-15.38,0-27.37,5.09-31.49,25.07L219.5,31H203.15s.86-4.91,1.17-6.55c1.24-6.44,4.24-7.63,9.81-7.63,1.53,0,3.28.12,4.93.24L221.84,1.2A64.51,64.51,0,0,0,210.14,0c-13.81,0-23.74,5.57-26.65,21.92L182,31l-9.57,2.3-2.06,11.63h9.21l-12.72,71.45H188l12.71-71.45h16.35l-12.31,71.45H226L238,44.94h12.48L252.93,31H240.45l.85-4.12c1.46-8,6.66-9.68,12-9.68a59.79,59.79,0,0,1,6.66.48L247.48,90.36h21.07L283.81,2Z"/><path class="cls-1" d="M315.24,44.4c3.33,0,5.86.93,6.1,3.79.36,4.32-3.65,6.62-9,6.62-4.67,0-5.87-.12-8.95-.23,2.28-5.82,5-10.18,11.86-10.18M333,84.63a29.07,29.07,0,0,1,1.23-12.27c-1.19.42-2.52.87-3.62,1.18a68.34,68.34,0,0,1-19.38,2.85c-6.85,0-9.94-2.08-9.94-7.78V67c5.25.23,9.37.34,14.61.34,19.28,0,24.18-11.63,24.18-21.66C340.1,36.56,333.37,30,317,30c-29.42,0-34.9,27.59-34.9,38.88,0,15.28,7.53,22.47,26.8,22.47a72.38,72.38,0,0,0,21.67-3.08c.87-.28,2.49-1,2.9-1.16-.16-.8-.3-1.61-.4-2.43"/><path class="cls-1" d="M371.5,81.37a9.51,9.51,0,1,1-9.51-9.5,9.5,9.5,0,0,1,9.51,9.5"/><path class="cls-2" d="M363.77,96.86a15.56,15.56,0,1,1,13.68-17.24,15.57,15.57,0,0,1-13.68,17.24m19.77-17.94a21.69,21.69,0,1,0-39.24,15l-19.84,19.84,4.91,4.92,19.82-19.82a21.66,21.66,0,0,0,34.35-20"/><path class="cls-2" d="M423.82,65.72q4.44,4.36,4.45,12.82v22.79h-7.18v-22q0-5.76-2.76-8.67t-7.93-2.92q-5.82,0-9.19,3.41t-3.36,9.75v20.4h-7.18V61.72h6.88v6A14,14,0,0,1,403.42,63a20.54,20.54,0,0,1,8.4-1.64c5,0,9,1.45,12,4.37"/><path class="cls-2" d="M446.39,70.54a12.63,12.63,0,0,0-4.07,8.22h25.41a12.77,12.77,0,0,0-4.07-8.18,13.38,13.38,0,0,0-17.27,0m28.07,13.38H442.32a12.44,12.44,0,0,0,4.6,8.41,15,15,0,0,0,9.75,3.17,14.72,14.72,0,0,0,11.44-4.78l4,4.63a17.42,17.42,0,0,1-6.69,4.79,25.25,25.25,0,0,1-20.07-.94A18.38,18.38,0,0,1,437.8,92a20.67,20.67,0,0,1-2.65-10.46,21,21,0,0,1,2.57-10.39,18.44,18.44,0,0,1,7.1-7.21A20.25,20.25,0,0,1,455,61.35a19.79,19.79,0,0,1,10.12,2.58,18,18,0,0,1,7,7.21,22,22,0,0,1,2.51,10.61,20.55,20.55,0,0,1-.15,2.17"/></svg>