<?xml version="1.0" encoding="utf-8"?>
<!-- Generator: Adobe Illustrator 27.5.0, SVG Export Plug-In . SVG Version: 6.00 Build 0)  -->
<svg version="1.1" id="svg3805" xmlns:svg="http://www.w3.org/2000/svg"
	 xmlns="http://www.w3.org/2000/svg" xmlns:xlink="http://www.w3.org/1999/xlink" x="0px" y="0px" viewBox="0 0 85.7 60"
	 style="enable-background:new 0 0 85.7 60;" xml:space="preserve">
<style type="text/css">
	.st0{fill:#FFFFFF;}
</style>
<g>
	<g>
		<g>
			<path class="st0" d="M33.8,25.5c-0.7,0-1.1,0.3-1.4,0.7c-0.2,0.3-0.3,0.7-0.4,1.2h3.6c0-0.5-0.1-0.9-0.3-1.2
				C34.9,25.7,34.5,25.5,33.8,25.5z"/>
			<path class="st0" d="M67.2,8.1c-2.7,0-5.2,0.6-7.5,1.6C57.1,5,52.2,1.9,46.5,1.9c-4.3,0-8.1,1.8-10.9,4.7c-3-4-7.8-6.6-13.3-6.6
				C13.2,0,5.7,7.5,5.8,16.6c0,2.4,0.5,4.6,1.4,6.6C2.9,25.7,0,30.4,0,35.7c0,8,6.4,14.5,14.3,14.5c1,0,2-0.1,2.9-0.3
				C19.4,55.8,25.1,60,31.7,60c6.4,0,11.8-3.9,14.2-9.4c1.8,0.9,3.8,1.4,5.9,1.4c5.1,0,9.5-2.8,11.8-6.9c1.2,0.2,2.4,0.4,3.6,0.4
				c10.2,0,18.5-8.3,18.5-18.6S77.4,8.1,67.2,8.1z M18.3,29.8c0,1.5-1.1,2.4-2.8,2.4c-0.9,0-1.7-0.1-2.6-0.6
				c-0.2-0.1-0.3-0.2-0.5-0.3c0-0.1-0.1-0.1,0-0.2l0.4-1c0.1-0.2,0.2-0.1,0.2-0.1c0.1,0.1,0.2,0.1,0.3,0.2c1,0.7,2,0.7,2.3,0.7
				c0.8,0,1.3-0.4,1.3-1v0c0-0.6-0.7-0.8-1.6-1.1L15,28.8c-1.2-0.3-2.4-0.8-2.4-2.3v0c0-1.4,1.1-2.4,2.7-2.4h0.2
				c1,0,1.8,0.3,2.5,0.7c0.1,0,0.1,0.1,0.1,0.2s-0.3,0.9-0.4,1c-0.1,0.2-0.2,0.1-0.2,0.1c-0.6-0.3-1.5-0.6-2.2-0.6
				c-0.7,0-1.1,0.4-1.1,0.9v0c0,0.6,0.8,0.8,1.6,1.1l0.2,0C17.1,27.9,18.3,28.4,18.3,29.8L18.3,29.8z M25.6,31.5c0,0,0,0.1-0.1,0.2
				c0,0-0.2,0.1-0.4,0.1S24.4,32,23.9,32c-0.5,0.1-1,0.1-1.5,0.1c-0.5,0-0.9,0-1.3-0.1c-0.4-0.1-0.7-0.2-1-0.4
				c-0.3-0.2-0.5-0.5-0.7-0.8c-0.2-0.3-0.2-0.7-0.2-1.1c0-0.4,0.1-0.8,0.3-1.2c0.2-0.3,0.4-0.6,0.7-0.8s0.7-0.4,1-0.5
				c0.4-0.1,0.8-0.2,1.2-0.2c0.4,0,0.7,0,0.9,0c0,0,0.4,0,0.8,0.1V27c0-0.7-0.1-1-0.4-1.2s-0.7-0.3-1.2-0.3c0,0-1.2,0-2.2,0.5
				c0,0-0.1,0-0.1,0s-0.1,0-0.2-0.1l-0.4-1c-0.1-0.1,0-0.2,0-0.2c0.5-0.4,1.5-0.6,1.5-0.6c0.4-0.1,1-0.1,1.3-0.1
				c1,0,1.7,0.2,2.3,0.7s0.8,1.2,0.8,2.2V31.5z M28.8,31.8c0,0.1-0.1,0.2-0.1,0.2h-1.3c-0.1,0-0.1-0.1-0.1-0.2V21.3
				c0-0.1,0.1-0.2,0.1-0.2h1.3c0.1,0,0.1,0.1,0.1,0.2V31.8z M37.1,28.5c0,0.1-0.1,0.1-0.1,0.1h-5c0,0.8,0.2,1.3,0.6,1.6
				c0.4,0.4,0.9,0.6,1.7,0.6c1.2,0,1.7-0.2,2-0.4c0,0,0.1,0,0.2,0.1l0.3,0.9c0.1,0.2,0,0.2,0,0.2c-0.3,0.2-1.1,0.5-2.5,0.5
				c-0.7,0-1.3-0.1-1.8-0.3c-0.5-0.2-0.9-0.5-1.3-0.8c-0.3-0.4-0.6-0.8-0.7-1.3c-0.2-0.5-0.2-1-0.2-1.6s0.1-1.1,0.2-1.6
				c0.1-0.5,0.4-0.9,0.7-1.3c0.3-0.4,0.7-0.7,1.2-0.9c0.5-0.2,1-0.3,1.6-0.3c0.5,0,1,0.1,1.4,0.3c0.3,0.1,0.6,0.4,1,0.7
				c0.1,0.1,0.5,0.6,0.6,1.1C37.3,27.4,37.1,28.4,37.1,28.5z M38.6,31.6c-0.2-0.1-0.3-0.2-0.5-0.3c0-0.1-0.1-0.1,0-0.2l0.4-1
				c0.1-0.2,0.2-0.1,0.2-0.1c0.1,0.1,0.2,0.1,0.3,0.2c1,0.7,2,0.7,2.3,0.7c0.8,0,1.3-0.4,1.3-1v0c0-0.6-0.7-0.8-1.6-1.1l-0.2-0.1
				c-1.2-0.3-2.4-0.8-2.4-2.3v0c0-1.4,1.1-2.4,2.7-2.4h0.2c1,0,1.8,0.3,2.5,0.7c0.1,0,0.1,0.1,0.1,0.2s-0.3,0.9-0.4,1
				c-0.1,0.2-0.2,0.1-0.2,0.1c-0.6-0.3-1.5-0.6-2.2-0.6c-0.7,0-1.1,0.4-1.1,0.9v0c0,0.6,0.8,0.8,1.6,1.1l0.2,0
				c1.2,0.4,2.4,0.9,2.4,2.3v0c0,1.5-1.1,2.4-2.8,2.4C40.4,32.2,39.5,32.1,38.6,31.6z M49.8,25.5c0,0.2-0.2,0.1-0.2,0.1H48L47,32
				c-0.1,0.7-0.3,1.2-0.4,1.7c-0.2,0.5-0.4,0.8-0.7,1.1c-0.3,0.3-0.6,0.5-0.9,0.6c-0.3,0.1-0.8,0.2-1.2,0.2c-0.2,0-0.5,0-0.7-0.1
				c-0.2,0-0.3-0.1-0.5-0.1c-0.1,0-0.1-0.1-0.1-0.2c0-0.1,0.3-0.9,0.4-1c0.1-0.1,0.2-0.1,0.2-0.1c0.1,0,0.2,0.1,0.3,0.1
				c0.1,0,0.3,0,0.4,0c0.2,0,0.4,0,0.6-0.1c0.2-0.1,0.3-0.2,0.5-0.4c0.1-0.2,0.2-0.4,0.4-0.7c0.1-0.3,0.2-0.7,0.3-1.2l1.1-6.2h-1.1
				c-0.1,0-0.2-0.1-0.2-0.2l0.2-1c0-0.2,0.2-0.1,0.2-0.1h1.1l0.1-0.3c0.2-1,0.5-1.7,1-2.2S49,21,49.9,21c0.3,0,0.5,0,0.7,0.1
				c0.1,0,0.3,0,0.5,0.1c0,0,0.1,0.1,0.1,0.2l-0.4,1.1c0,0.1-0.1,0.1-0.2,0.1c0,0-0.1,0-0.3-0.1c-0.1,0-0.3,0-0.4,0
				c-0.2,0-0.4,0-0.5,0.1s-0.3,0.1-0.4,0.3c-0.1,0.1-0.3,0.3-0.4,0.5c-0.2,0.5-0.3,1.1-0.3,1.1h1.6c0.1,0,0.2,0.1,0.2,0.2L49.8,25.5
				z M57.2,29.8c-0.1,0.5-0.4,0.9-0.7,1.3c-0.3,0.4-0.7,0.7-1.1,0.9c-0.5,0.2-1,0.3-1.6,0.3c-0.6,0-1.1-0.1-1.6-0.3
				c-0.5-0.2-0.8-0.5-1.1-0.9c-0.3-0.4-0.5-0.8-0.7-1.3c-0.1-0.5-0.2-1-0.2-1.6c0-0.6,0.1-1.1,0.2-1.6c0.1-0.5,0.4-0.9,0.7-1.3
				c0.3-0.4,0.7-0.7,1.1-0.9c0.5-0.2,1-0.3,1.6-0.3c0.6,0,1.1,0.1,1.6,0.3c0.5,0.2,0.8,0.5,1.1,0.9c0.3,0.4,0.5,0.8,0.7,1.3
				c0.1,0.5,0.2,1,0.2,1.6C57.4,28.7,57.3,29.3,57.2,29.8z M62.9,25.6c0,0.1-0.1,0.1-0.2,0.1c0,0-0.3-0.1-0.6-0.1
				c-0.2,0-0.4,0-0.7,0.1c-0.2,0.1-0.4,0.2-0.6,0.4c-0.2,0.2-0.3,0.4-0.4,0.7c-0.1,0.3-0.2,0.8-0.2,1.3v3.7c0,0.1-0.1,0.2-0.2,0.2
				h-1.3c-0.1,0-0.2-0.1-0.2-0.2v-7.4c0-0.1,0.1-0.2,0.1-0.2h1.3c0.1,0,0.1,0.1,0.1,0.2v0.6c0.2-0.3,0.5-0.5,0.8-0.6
				c0.3-0.1,0.7-0.2,1.3-0.2c0.3,0,0.8,0.1,0.8,0.1c0.1,0,0.2,0.1,0.2,0.2C63.3,24.7,63,25.4,62.9,25.6z M69.5,31.8
				c-0.6,0.2-1.3,0.4-2.1,0.4c-1.3,0-2.2-0.4-2.9-1.1c-0.7-0.7-1-1.7-1-2.9c0-0.6,0.1-1.1,0.2-1.6c0.2-0.5,0.4-0.9,0.7-1.3
				c0.3-0.4,0.7-0.7,1.2-0.9c0.5-0.2,1-0.3,1.6-0.3c0.4,0,0.8,0,1.1,0.1c0.3,0.1,0.8,0.2,1,0.3c0,0,0.1,0.1,0.1,0.2
				c-0.1,0.4-0.2,0.7-0.4,1c-0.1,0.2-0.2,0.1-0.2,0.1c-0.5-0.2-1-0.2-1.5-0.2c-0.7,0-1.3,0.2-1.6,0.7c-0.4,0.5-0.6,1.1-0.6,1.9
				c0,0.9,0.2,1.6,0.6,2c0.4,0.4,1,0.6,1.7,0.6c0.3,0,0.6,0,0.8-0.1c0.2,0,0.5-0.1,0.7-0.2c0,0.1,0.1,0,0.2,0.2h0l0.4,1
				C69.6,31.7,69.5,31.8,69.5,31.8z M76.8,28.5c0,0.1-0.1,0.1-0.1,0.1h-5c0,0.8,0.2,1.3,0.6,1.6c0.4,0.4,0.9,0.6,1.7,0.6
				c1.2,0,1.7-0.2,2-0.4c0,0,0.1,0,0.2,0.1l0.3,0.9c0.1,0.2,0,0.2,0,0.2c-0.3,0.2-1.1,0.5-2.5,0.5c-0.7,0-1.3-0.1-1.8-0.3
				c-0.5-0.2-0.9-0.5-1.3-0.8c-0.3-0.4-0.6-0.8-0.7-1.3c-0.2-0.5-0.2-1-0.2-1.6s0.1-1.1,0.2-1.6c0.1-0.5,0.4-0.9,0.7-1.3
				c0.3-0.4,0.7-0.7,1.2-0.9c0.5-0.2,1-0.3,1.6-0.3c0.5,0,1,0.1,1.4,0.3c0.3,0.1,0.6,0.4,1,0.7c0.2,0.1,0.5,0.6,0.6,1.1
				C77,27.4,76.9,28.4,76.8,28.5z"/>
			<path class="st0" d="M53.8,25.5c-0.7,0-1.1,0.2-1.4,0.7c-0.3,0.5-0.5,1.1-0.5,2c0,0.9,0.2,1.5,0.5,2c0.3,0.5,0.8,0.7,1.4,0.7
				c0.7,0,1.1-0.2,1.4-0.7c0.3-0.5,0.5-1.2,0.5-2c0-0.9-0.2-1.5-0.5-2C54.9,25.7,54.4,25.5,53.8,25.5z"/>
			<path class="st0" d="M21.3,28.7c-0.3,0.2-0.4,0.5-0.4,1c0,0.3,0.1,0.5,0.2,0.7c0,0.1,0.1,0.1,0.3,0.3c0,0,0.5,0.4,1.5,0.3
				c0.7,0,1.4-0.2,1.4-0.2v-2.3c0,0-0.6-0.1-1.4-0.1C21.7,28.4,21.3,28.7,21.3,28.7z"/>
			<path class="st0" d="M73.6,25.5c-0.7,0-1.1,0.3-1.4,0.7c-0.2,0.3-0.3,0.7-0.4,1.2h3.5c0-0.5-0.1-0.9-0.3-1.2
				C74.7,25.7,74.2,25.5,73.6,25.5z"/>
		</g>
	</g>
</g>
</svg>
