<?xml version="1.0" encoding="utf-8"?>
<!-- Generator: Adobe Illustrator 27.5.0, SVG Export Plug-In . SVG Version: 6.00 Build 0)  -->
<svg version="1.1" id="Ebene_1" xmlns="http://www.w3.org/2000/svg" xmlns:xlink="http://www.w3.org/1999/xlink" x="0px" y="0px"
	 viewBox="0 0 104.7 60" style="enable-background:new 0 0 104.7 60;" xml:space="preserve">
<style type="text/css">
	.st0{fill:#FFFFFF;}
	.st1{fill:#CE0058;}
</style>
<path class="st0" d="M87.4,0.1c0.1,0,0.3,0.1,0.4,0.1c4.2,0.3,7.8,1.7,10.9,4.5c2.8,2.5,4.5,5.6,5.4,9.2c0.4,1.7,0.6,3.4,0.6,5.2
	c0,8.5,0,17,0,25.5c0,0.2,0,0.4,0,0.5c-0.3,0.1-14,0.1-14.5,0c0-0.2,0-0.3,0-0.5c0-8.2,0-16.3,0-24.5c0-1.2-0.2-2.4-0.8-3.4
	c-1-1.7-2.4-2.7-4.3-3c-1.6-0.3-3.1,0.1-4.6,0.7c-1.8,0.8-3.4,2.1-4.7,3.5c-0.1,0.1-0.1,0.3-0.2,0.4c0,0.2,0,0.3,0,0.5
	c0,8.6,0,17.1,0,25.7c0,0.2,0,0.4,0,0.6c-0.3,0.1-13.7,0.1-14.1,0c2-4,2.7-8.2,2-12.7c-0.7-4.4-2.7-8.3-5.9-11.5
	c2.2-3,3.6-6.2,4-9.9c0.4-3.7-0.2-7.1-1.8-10.5c4.3,0,8.5,0,12.7,0c0.4,1.3,0.6,2.6,0.8,3.9c0.2-0.1,0.3-0.2,0.5-0.3
	c2.3-1.5,4.8-2.6,7.6-3.3c1.3-0.3,2.6-0.6,4-0.6c0.2,0,0.3-0.1,0.5-0.1C86.2,0.1,86.8,0.1,87.4,0.1z"/>
<path class="st0" d="M0.1,15.3c0.1,0,0.3,0,0.4,0c2.9,0,5.8,0,8.7,0c0.6,0,0.6,0,0.6-0.6c0-4.6,0-9.2,0-13.9c0-0.2,0-0.3,0-0.5
	c4.8,0,9.6,0,14.4,0c0,0.2,0,0.4,0,0.5c0,4.6,0,9.2,0,13.8c0,0.2,0,0.4,0,0.6c0.2,0,0.4,0,0.5,0c2.8,0,5.6,0,8.5,0c1,0,2,0,3,0
	c0.1,0,0.3,0,0.4,0c0.1,0.3,0.1,12.1,0,12.7c-0.8,0-1.7,0-2.5,0c-0.8,0-1.6,0-2.5,0s-1.7,0-2.5,0c-0.8,0-1.6,0-2.5,0
	c-0.8,0-1.7,0-2.5,0c0,0.2,0,0.3,0,0.4c0,2.5-0.1,5.1,0,7.6c0.2,5.1,1.9,9.6,5.4,13.4c0.1,0.1,0.2,0.2,0.3,0.3c0,0,0,0,0,0.1
	c-0.5,0.5-0.9,0.9-1.4,1.4c-2.8,2.8-5.5,5.6-8.2,8.4C20.1,59.8,20,60,19.8,60s-0.5-0.1-0.6-0.3c-2.7-2.9-4.8-6.1-6.4-9.7
	c-1.3-2.9-2.1-5.8-2.6-9c-0.3-1.8-0.4-3.7-0.4-5.5c0-2.3,0-4.6,0-6.9c0-0.2,0-0.3,0-0.5c-0.2,0-0.3,0-0.4,0c-3,0-6,0-9,0
	c-0.1,0-0.2,0-0.3,0C0.1,23.8,0.1,19.6,0.1,15.3z"/>
<path class="st0" d="M36.8,28.1c0.2,0,0.3,0,0.4,0c2.3,0,4.5,0,6.8,0c2.6,0,4.6,1.1,6,3.3c2.5,3.8,1,9.1-3.1,10.9
	c-3.2,1.5-7.1,0.3-9.1-2.9c-0.7-1.2-1.1-2.4-1.1-3.8c0-2.3,0-4.7,0-7C36.8,28.4,36.8,28.3,36.8,28.1z"/>
<path class="st0" d="M36.8,15.2c0-0.2,0-0.3,0-0.4c0-2,0-4,0-6c0-2.9,2-5.4,4.8-6.1C44.3,2,47,3.3,48.3,5.7c1.8,3.1,0.6,7.3-2.9,9
	c-0.8,0.4-1.7,0.6-2.6,0.6c-1.9,0-3.8,0-5.7,0C37.1,15.3,37,15.3,36.8,15.2z"/>
<rect x="89" y="32.2" transform="matrix(0.7071 -0.7071 0.7071 0.7071 -6.4475 78.3222)" class="st1" width="4.7" height="29.4"/>
<rect x="76.5" y="44.5" transform="matrix(0.7071 -0.7071 0.7071 0.7071 -6.4621 78.1913)" class="st1" width="29.4" height="4.7"/>
</svg>
